<svg width="22" height="22" viewBox="0 0 22 22" fill="none" xmlns="http://www.w3.org/2000/svg">
<path d="M7.5 17.9492H7C3 17.9492 1 16.9521 1 11.9671V6.98205C1 2.99402 3 1 7 1H15C19 1 21 2.99402 21 6.98205V11.9671C21 15.9551 19 17.9492 15 17.9492H14.5C14.19 17.9492 13.89 18.0987 13.7 18.348L12.2 20.342C11.54 21.2193 10.46 21.2193 9.8 20.342L8.3 18.348C8.14 18.1286 7.77 17.9492 7.5 17.9492Z" stroke="#9BAAAA" stroke-width="2" stroke-miterlimit="10" stroke-linecap="round" stroke-linejoin="round"/>
<path d="M14.9965 9.97305H15.0054" stroke="#9BAAAA" stroke-width="3" stroke-linecap="round" stroke-linejoin="round"/>
<path d="M10.9955 9.97305H11.0045" stroke="#9BAAAA" stroke-width="3" stroke-linecap="round" stroke-linejoin="round"/>
<path d="M6.99451 9.97305H7.00349" stroke="#9BAAAA" stroke-width="3" stroke-linecap="round" stroke-linejoin="round"/>
</svg>
