<svg width="48" height="48" viewBox="0 0 48 48" fill="none" xmlns="http://www.w3.org/2000/svg">
<rect width="48" height="48" rx="8" fill="#F2F7F6"/>
<path d="M22.6135 6.2288L41.9397 41.3004C42.1098 41.61 41.8995 42 41.564 42H33.3435C30.5742 42 28.008 40.4549 26.5809 37.9284L17.8499 22.4749C16.1108 19.3948 16.1746 15.5296 18.0177 12.5174L21.8716 6.21119C22.0488 5.9218 22.4481 5.93186 22.6112 6.2288H22.6135Z" fill="#657172"/>
<path d="M20.116 27.6563C20.1845 27.5028 20.0947 27.3216 19.9364 27.2964C14.2678 26.388 10.955 27.7771 8.75042 29.7474C7.57133 30.7993 6 33.2906 6 35.6082C6 39.1388 8.74333 42 12.127 42C15.5107 42 18.254 39.1388 18.254 35.6082C18.254 35.5176 18.2516 35.4295 18.2469 35.3415H18.254C18.254 33.3082 18.9487 30.2583 20.1136 27.6588L20.116 27.6563Z" fill="#657172"/>
</svg>
